<svg width="507.28001708984374px" height="123.31998901367187px" xmlns="http://www.w3.org/2000/svg" viewBox="-3.6400085449218693 13.340005493164064 507.28001708984374 123.31998901367187" style="background: none;" preserveAspectRatio="xMidYMid"><defs><filter id="editing-hole" x="-100%" y="-100%" width="300%" height="300%"><feFlood flood-color="#000" result="black"></feFlood><feMorphology operator="dilate" radius="2" in="SourceGraphic" result="erode"></feMorphology><feGaussianBlur in="erode" stdDeviation="4" result="blur"></feGaussianBlur><feOffset in="blur" dx="2" dy="2" result="offset"></feOffset><feComposite operator="atop" in="offset" in2="black" result="merge"></feComposite><feComposite operator="in" in="merge" in2="SourceGraphic" result="inner-shadow"></feComposite></filter></defs><g filter="url(#editing-hole)"><g transform="translate(68.08000421524048, 98.52000045776367)"><path d="M10.05 0L5.44 0L5.44-42.69L10.05-42.69L10.05 0ZM25.22 0L20.61 0L20.61-46.08L25.22-46.08L25.22-28.35L24.70-29.57L24.70-29.57Q27.14-30.91 29.82-31.71L29.82-31.71L29.82-31.71Q32.51-32.51 34.88-32.51L34.88-32.51L34.88-32.51Q38.78-32.51 41.54-31.04L41.54-31.04L41.54-31.04Q44.29-29.57 45.73-26.56L45.73-26.56L45.73-26.56Q47.17-23.55 47.17-18.94L47.17-18.94L47.17 0L42.56 0L42.56-18.94L42.56-18.94Q42.56-23.42 40.51-25.86L40.51-25.86L40.51-25.86Q38.46-28.29 34.37-28.29L34.37-28.29L34.37-28.29Q32.13-28.29 29.86-27.65L29.86-27.65L29.86-27.65Q27.58-27.01 25.22-25.73L25.22-25.73L25.22 0ZM66.43 0.96L66.43 0.96L66.43 0.96Q62.98 0.96 60.64 0.26L60.64 0.26L60.64 0.26Q58.30-0.45 55.81-1.73L55.81-1.73L55.81-6.59L55.81-6.59Q57.79-5.50 59.33-4.74L59.33-4.74L59.33-4.74Q60.86-3.97 62.46-3.62L62.46-3.62L62.46-3.62Q64.06-3.26 66.11-3.26L66.11-3.26L66.11-3.26Q69.31-3.26 71.33-4.67L71.33-4.67L71.33-4.67Q73.34-6.08 73.34-8.32L73.34-8.32L73.34-8.32Q73.34-10.11 72.35-11.07L72.35-11.07L72.35-11.07Q71.36-12.03 69.82-12.67L69.82-12.67L69.82-12.67Q68.29-13.31 66.62-14.02L66.62-14.02L66.62-14.02Q64.77-14.53 62.88-15.14L62.88-15.14L62.88-15.14Q60.99-15.74 59.42-16.74L59.42-16.74L59.42-16.74Q57.86-17.73 56.90-19.30L56.90-19.30L56.90-19.30Q55.94-20.86 55.94-23.36L55.94-23.36L55.94-23.36Q55.94-25.79 56.93-27.52L56.93-27.52L56.93-27.52Q57.92-29.25 59.52-30.37L59.52-30.37L59.52-30.37Q61.12-31.49 63.10-32L63.10-32L63.10-32Q65.09-32.51 67.07-32.51L67.07-32.51L67.07-32.51Q69.95-32.51 72-31.74L72-31.74L72-31.74Q74.05-30.98 76.22-30.02L76.22-30.02L76.22-25.41L76.22-25.41Q73.79-26.62 71.87-27.46L71.87-27.46L71.87-27.46Q69.95-28.29 67.33-28.29L67.33-28.29L67.33-28.29Q64.70-28.29 62.62-27.23L62.62-27.23L62.62-27.23Q60.54-26.18 60.54-24L60.54-24L60.54-24Q60.54-22.21 61.60-21.15L61.60-21.15L61.60-21.15Q62.66-20.10 64.38-19.46L64.38-19.46L64.38-19.46Q66.11-18.82 68.10-18.30L68.10-18.30L68.10-18.30Q69.70-17.79 71.42-17.18L71.42-17.18L71.42-17.18Q73.15-16.58 74.62-15.58L74.62-15.58L74.62-15.58Q76.10-14.59 77.02-12.99L77.02-12.99L77.02-12.99Q77.95-11.39 77.95-8.90L77.95-8.90L77.95-8.90Q77.95-5.50 76.22-3.30L76.22-3.30L76.22-3.30Q74.50-1.09 71.84-0.06L71.84-0.06L71.84-0.06Q69.18 0.96 66.43 0.96ZM97.60 0.96L97.60 0.96L97.60 0.96Q95.49 0.96 93.34 0.51L93.34 0.51L93.34 0.51Q91.20 0.06 89.38-1.02L89.38-1.02L89.38-1.02Q87.55-2.11 86.43-4L86.43-4L86.43-4Q85.31-5.89 85.31-8.77L85.31-8.77L85.31-8.77Q85.31-12.74 86.82-15.14L86.82-15.14L86.82-15.14Q88.32-17.54 90.98-18.59L90.98-18.59L90.98-18.59Q93.63-19.65 97.09-19.65L97.09-19.65L97.09-19.65Q99.65-19.65 101.60-19.30L101.60-19.30L101.60-19.30Q103.55-18.94 105.06-18.37L105.06-18.37L105.06-18.37Q106.56-17.79 107.78-17.02L107.78-17.02L108.67-12.80L108.67-12.80Q107.20-13.82 104.42-14.66L104.42-14.66L104.42-14.66Q101.63-15.49 98.30-15.49L98.30-15.49L98.30-15.49Q94.27-15.49 92.10-13.95L92.10-13.95L92.10-13.95Q89.92-12.42 89.92-9.47L89.92-9.47L89.92-9.47Q89.92-7.04 91.23-5.66L91.23-5.66L91.23-5.66Q92.54-4.29 94.56-3.71L94.56-3.71L94.56-3.71Q96.58-3.14 98.69-3.14L98.69-3.14L98.69-3.14Q102.85-3.14 104.99-3.74L104.99-3.74L104.99-3.74Q107.14-4.35 107.14-6.53L107.14-6.53L107.14-21.18L107.14-21.18Q107.14-24.90 104.96-26.62L104.96-26.62L104.96-26.62Q102.78-28.35 98.75-28.35L98.75-28.35L98.75-28.35Q96.19-28.35 93.31-27.62L93.31-27.62L93.31-27.62Q90.43-26.88 88.45-25.28L88.45-25.28L88.45-29.89L88.45-29.89Q90.43-31.10 93.76-31.81L93.76-31.81L93.76-31.81Q97.09-32.51 100.22-32.51L100.22-32.51L100.22-32.51Q102.34-32.51 104.13-32.10L104.13-32.10L104.13-32.10Q105.92-31.68 107.33-30.88L107.33-30.88L107.33-30.88Q108.74-30.08 109.73-28.83L109.73-28.83L109.73-28.83Q110.72-27.58 111.26-25.95L111.26-25.95L111.26-25.95Q111.81-24.32 111.81-22.27L111.81-22.27L111.81-6.78L111.81-6.78Q111.81-3.39 109.79-1.73L109.79-1.73L109.79-1.73Q107.78-0.06 104.54 0.45L104.54 0.45L104.54 0.45Q101.31 0.96 97.60 0.96ZM122.05 0L122.05-29.38L122.05-29.38Q123.58-30.14 125.22-30.75L125.22-30.75L125.22-30.75Q126.85-31.36 128.54-31.74L128.54-31.74L128.54-31.74Q130.24-32.13 132-32.32L132-32.32L132-32.32Q133.76-32.51 135.55-32.51L135.55-32.51L135.55-32.51Q140.22-32.51 142.98-31.14L142.98-31.14L142.98-31.14Q145.73-29.76 146.98-27.14L146.98-27.14L146.98-27.14Q148.22-24.51 148.22-20.80L148.22-20.80L148.22 0L143.62 0L143.62-20.80L143.62-20.80Q143.62-21.95 143.33-23.23L143.33-23.23L143.33-23.23Q143.04-24.51 142.21-25.70L142.21-25.70L142.21-25.70Q141.38-26.88 139.65-27.62L139.65-27.62L139.65-27.62Q137.92-28.35 135.04-28.35L135.04-28.35L135.04-28.35Q133.06-28.35 130.94-28.03L130.94-28.03L130.94-28.03Q128.83-27.71 126.66-27.07L126.66-27.07L126.66 0L122.05 0ZM192.90 0L188.29 0L188.29-38.34L173.18-38.34L173.18-42.69L207.94-42.69L207.94-38.34L192.90-38.34L192.90 0ZM227.46 0.96L227.46 0.96L227.46 0.96Q219.97 0.96 216.35-3.49L216.35-3.49L216.35-3.49Q212.74-7.94 212.74-15.87L212.74-15.87L212.74-15.87Q212.74-24.19 216.54-28.35L216.54-28.35L216.54-28.35Q220.35-32.51 227.33-32.51L227.33-32.51L227.33-32.51Q232.51-32.51 235.78-30.43L235.78-30.43L235.78-30.43Q239.04-28.35 240.58-24.61L240.58-24.61L240.58-24.61Q242.11-20.86 242.11-15.87L242.11-15.87L242.11-15.87Q242.11-8 238.30-3.52L238.30-3.52L238.30-3.52Q234.50 0.96 227.46 0.96ZM227.39-3.26L227.39-3.26L227.39-3.26Q231.23-3.26 233.44-4.96L233.44-4.96L233.44-4.96Q235.65-6.66 236.58-9.50L236.58-9.50L236.58-9.50Q237.50-12.35 237.50-15.87L237.50-15.87L237.50-15.87Q237.50-19.65 236.54-22.43L236.54-22.43L236.54-22.43Q235.58-25.22 233.34-26.75L233.34-26.75L233.34-26.75Q231.10-28.29 227.39-28.29L227.39-28.29L227.39-28.29Q223.55-28.29 221.38-26.62L221.38-26.62L221.38-26.62Q219.20-24.96 218.27-22.14L218.27-22.14L218.27-22.14Q217.34-19.33 217.34-15.87L217.34-15.87L217.34-15.87Q217.34-10.24 219.58-6.75L219.58-6.75L219.58-6.75Q221.82-3.26 227.39-3.26ZM250.75 0L250.75-29.38L250.75-29.38Q252.29-30.14 253.92-30.75L253.92-30.75L253.92-30.75Q255.55-31.36 257.25-31.74L257.25-31.74L257.25-31.74Q258.94-32.13 260.70-32.32L260.70-32.32L260.70-32.32Q262.46-32.51 264.26-32.51L264.26-32.51L264.26-32.51Q268.93-32.51 271.68-31.14L271.68-31.14L271.68-31.14Q274.43-29.76 275.68-27.14L275.68-27.14L275.68-27.14Q276.93-24.51 276.93-20.80L276.93-20.80L276.93 0L272.32 0L272.32-20.80L272.32-20.80Q272.32-21.95 272.03-23.23L272.03-23.23L272.03-23.23Q271.74-24.51 270.91-25.70L270.91-25.70L270.91-25.70Q270.08-26.88 268.35-27.62L268.35-27.62L268.35-27.62Q266.62-28.35 263.74-28.35L263.74-28.35L263.74-28.35Q261.76-28.35 259.65-28.03L259.65-28.03L259.65-28.03Q257.54-27.71 255.36-27.07L255.36-27.07L255.36 0L250.75 0ZM300.54 0.96L300.54 0.96L300.54 0.96Q296.26 0.96 293.28-0.51L293.28-0.51L293.28-0.51Q290.30-1.98 288.74-4.80L288.74-4.80L288.74-4.80Q287.17-7.62 287.17-11.71L287.17-11.71L287.17-31.94L291.78-31.94L291.78-12.74L291.78-12.74Q291.78-7.87 293.89-5.60L293.89-5.60L293.89-5.60Q296-3.33 300.54-3.33L300.54-3.33L300.54-3.33Q305.02-3.33 307.17-5.60L307.17-5.60L307.17-5.60Q309.31-7.87 309.31-12.74L309.31-12.74L309.31-31.94L313.92-31.94L313.92-11.71L313.92-11.71Q313.92-5.63 310.43-2.34L310.43-2.34L310.43-2.34Q306.94 0.96 300.54 0.96ZM345.28 0L321.92 0L321.92-4.16L340.86-29.38L341.82-27.97L322.37-27.97L322.37-31.94L345.28-31.94L345.28-27.90L326.34-2.88L326.34-4.10L345.28-4.10L345.28 0ZM358.14 0L353.54 0L353.54-31.94L358.14-31.94L358.14 0ZM358.40-37.63L353.28-37.63L353.28-42.69L358.40-42.69L358.40-37.63Z" fill="#ccc"></path></g></g><style>text {
  font-size: 64px;
  font-family: Arial Black;
  dominant-baseline: central;
  text-anchor: middle;
}</style></svg>